<?xml version="1.0" encoding="utf-8"?>
<!-- Generator: Adobe Illustrator 28.2.0, SVG Export Plug-In . SVG Version: 6.00 Build 0)  -->
<svg version="1.1" id="Layer_1" xmlns="http://www.w3.org/2000/svg" xmlns:xlink="http://www.w3.org/1999/xlink" x="0px" y="0px"
	 viewBox="0 0 42.5 42.5" style="enable-background:new 0 0 42.5 42.5;" xml:space="preserve">
<style type="text/css">
	.st0{fill:#FFFFFF;}
	.st1{fill:#016937;}
</style>
<g>
	<path class="st0" d="M21.1,1c11.2,0,20.2,9.1,20.2,20.2s-9.1,20.3-20.2,20.3S0.8,32.4,0.8,21.2S9.9,1,21.1,1"/>
</g>
<g>
	<path class="st1" d="M21.1,9.9c-3.1,0-3.5,0-4.7,0.1c-0.9,0-1.9,0.2-2.8,0.5c-1.5,0.6-2.7,1.8-3.3,3.3c-0.3,0.9-0.5,1.8-0.5,2.7
		c-0.1,1.2-0.1,1.6-0.1,4.7s0,3.5,0.1,4.7c0,0.9,0.2,1.8,0.6,2.7c0.6,1.5,1.8,2.7,3.3,3.3c0.9,0.3,1.8,0.5,2.8,0.5
		c1.2,0.1,1.6,0.1,4.7,0.1s3.5,0,4.7-0.1c0.9,0,1.9-0.2,2.8-0.5c1.5-0.6,2.7-1.8,3.3-3.3c0.3-0.9,0.5-1.8,0.5-2.8
		c0.1-1.2,0.1-1.6,0.1-4.7s0-3.5-0.1-4.7c0-0.9-0.2-1.9-0.5-2.8c-0.6-1.5-1.8-2.7-3.3-3.3c-0.9-0.3-1.8-0.5-2.8-0.5
		C24.6,9.9,24.1,9.9,21.1,9.9L21.1,9.9z M21.1,12c3,0,3.4,0,4.6,0.1c0.7,0,1.4,0.1,2.1,0.4c1,0.4,1.8,1.2,2.1,2.1
		c0.3,0.7,0.4,1.4,0.4,2.1c0.1,1.2,0.1,1.6,0.1,4.6s0,3.4-0.1,4.6c0,0.7-0.1,1.4-0.4,2.1c-0.4,1-1.2,1.8-2.1,2.1
		c-0.7,0.3-1.4,0.4-2.1,0.4c-1.2,0.1-1.6,0.1-4.6,0.1s-3.4,0-4.6-0.1c-0.7,0-1.4-0.1-2.1-0.4c-1-0.4-1.7-1.2-2.1-2.2
		c-0.3-0.7-0.4-1.4-0.4-2.1c-0.1-1.2-0.1-1.6-0.1-4.6s0-3.4,0.1-4.6c0-0.7,0.1-1.4,0.4-2.1c0.4-1,1.2-1.7,2.1-2.1
		c0.7-0.3,1.4-0.4,2.1-0.4C17.6,12,18,12,21.1,12"/>
</g>
<g>
	<path class="st1" d="M21.1,25c-2.1,0-3.8-1.7-3.8-3.8s1.7-3.8,3.8-3.8c2.1,0,3.8,1.7,3.8,3.8C24.7,23.3,23.1,25,21.1,25 M21.1,15.4
		c-3.2,0-5.8,2.6-5.8,5.8s2.6,5.8,5.8,5.8c3.2,0,5.8-2.6,5.8-5.8S24.2,15.4,21.1,15.4"/>
</g>
<g>
	<path class="st1" d="M27.1,13.8c0.8,0,1.4,0.6,1.4,1.4s-0.6,1.4-1.4,1.4s-1.4-0.6-1.4-1.4S26.4,13.8,27.1,13.8"/>
</g>
</svg>
