<?xml version="1.0" encoding="utf-8"?>
<!-- Generator: Adobe Illustrator 28.2.0, SVG Export Plug-In . SVG Version: 6.00 Build 0)  -->
<svg version="1.1" id="Layer_1" xmlns="http://www.w3.org/2000/svg" xmlns:xlink="http://www.w3.org/1999/xlink" x="0px" y="0px"
	 viewBox="0 0 42.5 42.5" style="enable-background:new 0 0 42.5 42.5;" xml:space="preserve">
<style type="text/css">
	.st0{fill:#FFFFFF;}
	.st1{fill:#016937;}
</style>
<g>
	<g>
		<path class="st0" d="M21.1,1c11.2,0,20.2,9.1,20.2,20.2s-9.1,20.3-20.2,20.3S0.8,32.4,0.8,21.2S9.9,1,21.1,1"/>
	</g>
	<g>
		<path class="st1" d="M12.4,9.9c1.5,0,2.7,1.2,2.7,2.7s-1.2,2.7-2.7,2.7s-2.7-1.2-2.7-2.7S10.9,9.9,12.4,9.9 M10,17.4h4.7v15.1H10
			V17.4z"/>
	</g>
	<g>
		<path class="st1" d="M17.7,17.4h4.5v2h0.1c0.9-1.6,2.6-2.5,4.4-2.4c4.8,0,5.6,3.1,5.6,7.2v8.3h-4.7v-7.3c0-1.8,0-4-2.4-4
			s-2.8,1.9-2.8,3.9v7.5h-4.7V17.4z"/>
	</g>
</g>
</svg>
