<?xml version="1.0" encoding="utf-8"?>
<!-- Generator: Adobe Illustrator 28.2.0, SVG Export Plug-In . SVG Version: 6.00 Build 0)  -->
<svg version="1.1" id="Layer_1" xmlns="http://www.w3.org/2000/svg" xmlns:xlink="http://www.w3.org/1999/xlink" x="0px" y="0px"
	 viewBox="0 0 42.5 42.5" style="enable-background:new 0 0 42.5 42.5;" xml:space="preserve">
<style type="text/css">
	.st0{fill:#FFFFFF;}
	.st1{fill:#016937;}
</style>
<g>
	<path class="st0" d="M21.2,0.9c11.2,0,20.2,9.1,20.2,20.2c0,11.2-9.1,20.2-20.2,20.2C10,41.3,1,32.2,1,21.1C1,10,10,0.9,21.2,0.9"
		/>
</g>
<path class="st1" d="M27,11.9h3.1l-6.8,7.8l8,10.6h-6.3l-4.9-6.4l-5.6,6.4h-3.1l7.3-8.3L11,11.9h6.4l4.4,5.9L27,11.9z M25.9,28.5
	h1.7L16.5,13.7h-1.9L25.9,28.5L25.9,28.5z"/>
</svg>
